HIERARCHY
ROOT Hips
{
	OFFSET -26.824600 50.099693 -149.439941
	CHANNELS 6 Xposition Yposition Zposition Zrotation Yrotation Xrotation
	JOINT LeftUpLeg
	{
		OFFSET 10.145000 0.000000 0.000000
		CHANNELS 3 Zrotation Yrotation Xrotation
		JOINT LeftLeg
		{
			OFFSET 0.000000 -42.917400 -0.000061
			CHANNELS 3 Zrotation Yrotation Xrotation
			JOINT LeftFoot
			{
				OFFSET 0.000000 -42.250599 0.000000
				CHANNELS 3 Zrotation Yrotation Xrotation
				JOINT LeftToe
				{
					OFFSET 0.000000 -4.392151 17.201004
					CHANNELS 3 Zrotation Yrotation Xrotation
					End Site
					{
						OFFSET 0.000000 0.099998 0.000000
					}
				}
			}
		}
	}
	JOINT RightUpLeg
	{
		OFFSET -10.145000 0.000000 0.000000
		CHANNELS 3 Zrotation Yrotation Xrotation
		JOINT RightLeg
		{
			OFFSET 0.000000 -42.917400 -0.000061
			CHANNELS 3 Zrotation Yrotation Xrotation
			JOINT RightFoot
			{
				OFFSET 0.000000 -42.250599 0.000000
				CHANNELS 3 Zrotation Yrotation Xrotation
				JOINT RightToe
				{
					OFFSET 0.000000 -4.392151 17.201004
					CHANNELS 3 Zrotation Yrotation Xrotation
					End Site
					{
						OFFSET 0.000000 0.099998 0.000000
					}
				}
			}
		}
	}
	JOINT Spine
	{
		OFFSET 0.000000 10.318600 -2.509537
		CHANNELS 3 Zrotation Yrotation Xrotation
		JOINT Spine1
		{
			OFFSET 0.000000 9.934231 0.000000
			CHANNELS 3 Zrotation Yrotation Xrotation
			JOINT Spine2
			{
				OFFSET 0.000000 9.934227 0.000000
				CHANNELS 3 Zrotation Yrotation Xrotation
				JOINT Neck
				{
					OFFSET -0.335104 22.641098 1.787384
					CHANNELS 3 Zrotation Yrotation Xrotation
					JOINT Head
					{
						OFFSET 0.234144 15.519096 0.301941
						CHANNELS 3 Zrotation Yrotation Xrotation
						End Site
						{
							OFFSET 0.000000 0.099998 0.000000
						}
					}
				}
				JOINT LeftShoulder
				{
					OFFSET -0.147516 18.715599 8.700119
					CHANNELS 3 Zrotation Yrotation Xrotation
					JOINT LeftArm
					{
						OFFSET 0.000000 20.301498 0.000000
						CHANNELS 3 Zrotation Yrotation Xrotation
						JOINT LeftForeArm
						{
							OFFSET 0.000000 27.875137 0.000061
							CHANNELS 3 Zrotation Yrotation Xrotation
							JOINT LeftHand
							{
								OFFSET 0.000000 24.367203 0.000000
								CHANNELS 3 Zrotation Yrotation Xrotation
								End Site
								{
									OFFSET 0.000000 0.100006 0.000000
								}
							}
						}
					}
				}
				JOINT RightShoulder
				{
					OFFSET -0.147516 18.715599 8.700119
					CHANNELS 3 Zrotation Yrotation Xrotation
					JOINT RightArm
					{
						OFFSET 0.000000 20.301498 0.000000
						CHANNELS 3 Zrotation Yrotation Xrotation
						JOINT RightForeArm
						{
							OFFSET 0.000000 27.875137 0.000061
							CHANNELS 3 Zrotation Yrotation Xrotation
							JOINT RightHand
							{
								OFFSET 0.000000 24.367203 0.000000
								CHANNELS 3 Zrotation Yrotation Xrotation
								End Site
								{
									OFFSET 0.000000 0.100006 0.000000
								}
							}
						}
					}
				}
			}
		}
	}
}
MOTION
Frames: 16
Frame Time: 0.033333
31.828800 84.706100 -65.889800 2.884133 -49.572305 -6.307923 10.832028 29.297681 -19.016770 0.000000 -0.000000 23.925032 -2.368779 22.139933 0.003816 0.000000 -0.000000 19.815227 -18.215888 -5.245336 10.262368 0.000000 -0.000000 21.284678 14.554098 6.384027 -27.110016 0.000000 -0.000000 19.869504 -4.265388 1.278117 3.089648 -0.133304 0.195398 5.579171 0.602565 5.232881 5.048598 -7.700025 8.514829 14.504452 -8.480724 19.928589 -0.279204 -79.436482 5.871623 -17.910063 -68.459226 -17.900309 54.466387 11.396751 -1.626433 98.014767 18.715379 -0.000001 8.776942 70.742477 -8.407337 -17.639968 28.721626 -21.459666 99.927124 -1.142852 0.301337 104.769042 -13.354314 -0.000003 -8.940583
31.694900 84.702300 -66.172700 3.328125 -49.483909 -6.898132 11.220231 28.330560 -18.570296 0.000000 -0.000000 23.825657 -2.875484 21.876580 0.673818 0.000000 -0.000000 19.664204 -18.323357 -5.148864 10.370880 0.000000 -0.000000 21.559480 14.425522 6.404025 -27.574310 0.000000 -0.000000 20.029509 -4.187463 1.270937 3.143374 -0.129098 0.190663 5.595165 0.601994 5.099444 5.052828 -7.726177 8.450799 14.606314 -8.541673 20.024439 -0.284967 -79.584316 5.821096 -17.834116 -68.744391 -17.439206 53.564056 11.932012 -2.180021 100.204534 19.200883 0.000005 9.060252 70.916127 -8.444085 -17.853387 27.927941 -21.739130 99.720559 -1.520643 0.422095 105.509790 -13.452922 0.000003 -8.945200
31.592700 84.717900 -66.425200 3.847412 -49.412537 -7.482588 11.468026 27.624622 -18.300069 0.000000 -0.000000 23.881602 -3.167759 21.262151 1.427883 0.000000 -0.000000 19.320856 -18.487055 -5.061506 10.372274 0.000000 -0.000000 21.884389 14.284073 6.360120 -27.987496 0.000000 -0.000000 20.183566 -4.210688 1.266360 3.142280 -0.128185 0.186915 5.608623 0.593756 4.953138 5.078162 -7.732925 8.412789 14.698624 -8.559679 20.181271 -0.275837 -79.712907 5.774034 -17.698990 -68.992114 -17.054895 52.519690 12.550154 -2.820184 102.463070 19.447489 -0.000000 9.237175 71.074585 -8.463919 -17.967420 27.216524 -22.098388 99.501253 -2.358199 0.682874 106.140669 -13.694373 -0.000001 -8.996329
31.500800 84.731300 -66.655900 4.255975 -49.377383 -7.934943 11.727168 27.158226 -18.108101 0.000000 -0.000000 23.963655 -2.906748 20.095993 2.193035 0.000000 -0.000000 19.207488 -18.552776 -4.905011 10.301485 0.000000 -0.000000 22.232815 14.133997 6.214502 -28.369780 0.000000 -0.000000 20.294649 -4.226623 1.263327 3.117862 -0.146457 0.189693 5.620381 0.601361 4.840252 5.129225 -7.731752 8.355710 14.662295 -8.491510 20.332368 -0.190673 -79.805700 5.757034 -17.607737 -69.219112 -16.645456 51.581597 13.422702 -3.553467 104.558548 19.629288 0.000003 9.282655 71.269396 -8.526028 -18.130713 26.613088 -22.450261 99.298455 -3.461565 1.039691 106.697697 -13.889953 -0.000001 -8.874344
31.422300 84.738300 -66.849600 4.521443 -49.349797 -8.235741 12.012446 26.876645 -17.886799 0.000000 -0.000000 23.903915 -2.101766 18.363673 2.825679 0.000000 -0.000000 19.310417 -18.555449 -4.780568 10.208979 0.000000 -0.000000 22.558095 14.007686 6.092159 -28.677256 0.000000 -0.000000 20.363687 -4.156356 1.266346 3.001509 -0.189387 0.189399 5.635400 0.586227 4.673603 5.245572 -7.676800 8.351084 14.608864 -8.441580 20.455740 -0.187470 -79.907335 5.998441 -17.564486 -69.476225 -16.342117 50.940414 14.043884 -4.280374 106.613995 19.864190 0.000001 9.410379 71.448953 -8.782179 -18.290373 26.169402 -22.691529 99.200148 -4.451755 1.384757 107.244481 -14.078591 0.000002 -8.779533
31.361300 84.738300 -66.978300 4.716393 -49.306803 -8.401274 12.239667 26.817044 -17.646787 0.000000 -0.000000 23.629012 -1.269989 16.232392 3.101149 0.000000 -0.000000 19.827225 -18.595095 -4.790871 10.087037 0.000000 -0.000000 22.839622 13.925108 6.098551 -28.878923 0.000000 -0.000000 20.375669 -4.069979 1.259514 3.155602 -0.211385 0.182099 5.648971 0.520930 4.488723 4.986071 -7.652257 8.330007 14.720743 -8.471642 20.596914 -0.392547 -80.047131 5.575949 -17.456237 -69.252069 -15.927173 49.540954 14.699264 -5.074936 108.634240 19.958588 -0.000000 9.657837 71.557117 -8.423431 -18.461398 25.701865 -23.695074 98.975195 -5.179734 1.647163 107.593343 -14.163093 0.000001 -8.726963
31.320900 84.717800 -67.063200 4.714338 -49.276020 -8.375372 12.603572 26.822431 -17.257439 0.000000 -0.000000 23.029000 -1.951410 13.794365 2.210315 0.000000 -0.000000 19.922153 -18.557632 -4.874586 9.946333 0.000000 -0.000000 23.095568 13.869402 6.170253 -29.014371 0.000000 -0.000000 20.352503 -3.935395 1.244338 3.118466 -0.224904 0.178370 5.644895 0.534939 4.302722 4.963957 -7.641806 8.219800 14.715494 -8.516216 20.766211 -0.593512 -80.158330 5.518895 -17.377634 -69.283873 -15.615696 48.653470 15.146585 -5.812868 110.513349 19.970301 0.000003 9.816030 71.705471 -8.451969 -18.689566 25.272792 -24.201756 99.030764 -5.496319 1.783066 107.919293 -14.381852 0.000001 -8.612995
31.311500 84.686600 -67.087800 4.656826 -49.267619 -8.270349 12.927189 26.799055 -16.696973 0.000000 -0.000000 21.952764 -3.084346 11.223182 0.087601 0.000000 -0.000000 19.693778 -18.536634 -4.997517 9.789957 0.000000 -0.000000 23.313381 13.838639 6.272078 -29.103544 0.000000 -0.000000 20.330145 -3.832397 1.221531 3.033082 -0.210079 0.168899 5.632483 0.552349 4.133488 4.978244 -7.606804 8.132527 14.665304 -8.505653 20.852742 -0.722336 -80.255273 5.523488 -17.294221 -69.264841 -15.311687 47.888347 15.380900 -6.461064 112.247623 20.264867 0.000002 10.015920 71.851989 -8.517008 -18.853392 24.844459 -24.609935 99.139388 -5.984195 1.978499 108.229431 -14.807242 -0.000001 -8.450924
31.320400 84.628600 -67.044400 4.495827 -49.309197 -8.073191 13.268300 26.530618 -15.921017 0.000000 -0.000000 20.270885 -4.041784 9.491606 -2.315036 0.000000 -0.000000 19.409896 -18.465788 -5.044829 9.611160 0.000000 -0.000000 23.544110 13.814594 6.319359 -29.193719 0.000000 -0.000000 20.317369 -3.717369 1.199933 2.973631 -0.192797 0.159697 5.613706 0.585876 4.000431 4.958261 -7.495074 8.071017 14.585829 -8.509977 20.896736 -0.777666 -80.332507 5.495334 -17.232447 -69.260331 -15.003267 47.201503 15.407083 -6.985957 113.814163 20.392890 0.000006 10.199319 71.991639 -8.536649 -18.982081 24.312105 -24.958423 99.284980 -7.162631 2.409605 108.498257 -15.529568 0.000000 -8.098748
31.358800 84.543400 -66.945600 4.280434 -49.369345 -7.809491 13.563979 25.978429 -15.036370 0.000000 -0.000000 18.202474 -4.789748 9.020048 -4.576643 0.000000 -0.000000 19.114986 -18.374225 -5.020437 9.392239 0.000000 -0.000000 23.808622 13.816229 6.316755 -29.311158 0.000000 -0.000000 20.312295 -3.616651 1.175132 2.922988 -0.170977 0.148891 5.592812 0.605002 3.902281 4.926793 -7.351635 8.014348 14.481294 -8.450200 20.900840 -0.820978 -80.383288 5.468103 -17.189742 -69.229311 -14.659678 46.708282 15.395449 -7.423820 115.137431 20.580377 -0.000004 10.317528 72.141193 -8.546412 -19.074372 23.772270 -25.232993 99.439472 -8.934481 3.062932 108.771664 -16.258100 -0.000002 -7.759434
31.468300 84.481400 -66.800700 4.638896 -49.289546 -7.972671 13.386615 24.957136 -14.478171 0.000000 -0.000000 16.701589 -5.683414 9.692421 -5.802496 0.000000 -0.000000 18.618056 -18.719659 -5.011894 9.158401 0.000000 -0.000000 24.146047 13.898370 6.316704 -29.495830 0.000000 -0.000000 20.284445 -4.041575 1.125133 2.851355 -0.097879 0.143878 5.626236 0.619933 3.797801 5.012492 -7.162198 7.918833 14.345008 -8.454483 20.858443 -1.004071 -80.460837 5.256626 -17.058340 -69.072406 -14.457871 46.345439 15.430762 -7.809823 116.210887 20.772539 0.000003 10.447516 72.445069 -8.421991 -19.191780 23.215840 -25.408585 99.661071 -10.646642 3.692663 108.911503 -16.889799 0.000003 -7.468192
31.603000 84.381500 -66.598800 4.955100 -49.140242 -8.088737 13.167099 23.861652 -14.076543 0.000000 -0.000000 15.770929 -7.485444 10.455810 -5.082857 0.000000 -0.000000 17.928442 -19.077186 -5.009346 8.931463 0.000000 -0.000000 24.529271 14.044196 6.311981 -29.732643 0.000000 -0.000000 20.271374 -4.475317 1.087195 2.777997 -0.024358 0.139824 5.655442 0.644122 3.658822 5.099239 -6.970051 7.785816 14.224245 -8.462154 20.777440 -1.228759 -80.513636 5.061257 -16.919926 -68.959565 -14.305691 46.209205 15.613192 -8.182045 116.988643 20.905800 -0.000002 10.575502 72.771664 -8.320841 -19.354727 22.683485 -25.477650 99.940953 -11.421823 4.001882 109.056831 -17.417346 0.000000 -7.189510
31.739000 84.243700 -66.358400 5.019501 -48.973950 -7.994976 13.143867 22.945990 -13.915675 0.000000 -0.000000 15.186456 -9.639493 10.708302 -3.358650 0.000000 -0.000000 17.359484 -19.269604 -4.965732 8.697334 0.000000 -0.000000 24.952766 14.221493 6.245110 -29.971865 0.000000 -0.000000 20.208531 -4.758883 1.056980 2.725455 0.029044 0.134968 5.658425 0.655691 3.522553 5.127402 -6.648933 7.673841 14.157270 -8.526244 20.668831 -1.432740 -80.553131 4.933704 -16.822627 -68.801853 -14.083411 46.344857 15.866163 -8.474272 117.406306 21.270783 0.000001 10.731788 73.093908 -8.268578 -19.523933 22.135870 -25.527858 100.263510 -11.950118 4.233308 109.227678 -18.181056 -0.000002 -7.182728
31.904700 84.128300 -66.114300 5.270076 -48.758905 -7.977783 12.843478 22.902990 -14.254884 0.000000 -0.000000 15.158845 -11.169358 10.368795 -2.052113 0.000000 -0.000000 17.800282 -19.610199 -5.012266 8.332735 0.000000 -0.000000 25.523296 14.346641 6.191966 -30.195975 0.000000 -0.000000 20.135656 -5.246445 1.009436 2.646951 0.091950 0.135619 5.675563 0.653041 3.449255 5.172219 -6.347738 7.551942 13.981614 -8.454241 20.478048 -1.463757 -80.592470 4.730610 -16.714379 -68.613177 -13.809670 46.654511 15.870487 -8.525345 117.539483 21.719081 0.000002 10.979812 73.506448 -8.108765 -19.677536 21.596081 -25.631862 100.540204 -12.390585 4.419439 109.328451 -18.798865 -0.000004 -7.059676
32.049300 84.007000 -65.854400 5.379128 -48.564477 -7.864882 12.629850 23.195713 -14.937513 0.000000 -0.000000 15.994971 -12.605221 10.293036 -1.855447 0.000000 -0.000000 18.399035 -19.870216 -5.085268 7.999177 0.000000 -0.000000 26.079323 14.424179 6.167083 -30.358189 0.000000 -0.000000 19.975845 -5.615304 0.974075 2.568225 0.125325 0.140687 5.687173 0.637732 3.432992 5.211466 -6.056874 7.467488 13.823228 -8.362636 20.253842 -1.465368 -80.584472 4.616674 -16.636819 -68.432509 -13.435345 47.118235 15.960443 -8.485483 117.291232 22.484906 0.000004 11.252616 73.841101 -7.987373 -19.765589 21.196792 -25.814690 100.758005 -13.510499 4.830180 109.312880 -19.460570 -0.000003 -6.540300
32.187700 83.890500 -65.594700 5.245620 -48.410278 -7.564007 12.463661 23.955373 -15.957448 0.000000 -0.000000 17.459888 -13.699966 9.852086 -2.039294 0.000000 -0.000000 18.699392 -19.940164 -5.089010 7.674236 0.000000 -0.000000 26.580580 14.474966 6.088638 -30.430192 0.000000 -0.000000 19.779484 -5.745690 0.964290 2.535378 0.109479 0.149316 5.664698 0.624516 3.439352 5.198025 -5.847038 7.419173 13.676249 -8.264374 20.066628 -1.424896 -80.532048 4.609704 -16.567749 -68.382093 -12.952745 47.620363 16.112253 -8.368757 116.740918 23.598505 0.000001 11.635336 74.034612 -7.941732 -19.768585 20.842635 -26.061387 101.031698 -15.175242 5.377069 109.059961 -20.661996 -0.000001 -5.689808
